<?xml version="1.0" encoding="utf-8"?>
<!-- Generator: Adobe Illustrator 24.0.1, SVG Export Plug-In . SVG Version: 6.00 Build 0)  -->
<svg version="1.1" id="레이어_1" xmlns="http://www.w3.org/2000/svg" xmlns:xlink="http://www.w3.org/1999/xlink" x="0px"
	 y="0px" viewBox="0 0 161 81" style="enable-background:new 0 0 161 81;" xml:space="preserve">
<style type="text/css">
	.st0{filter:url(#Adobe_OpacityMaskFilter);}
	.st1{fill-rule:evenodd;clip-rule:evenodd;fill:#FFFFFF;}
	.st2{mask:url(#bi_solid-b_1_);fill-rule:evenodd;clip-rule:evenodd;fill:#477A7B;}
</style>
<g>
	<defs>
		<filter id="Adobe_OpacityMaskFilter" filterUnits="userSpaceOnUse" x="0" y="1" width="160.3" height="79.9">
			<feColorMatrix  type="matrix" values="1 0 0 0 0  0 1 0 0 0  0 0 1 0 0  0 0 0 1 0"/>
		</filter>
	</defs>
	<mask maskUnits="userSpaceOnUse" x="0" y="1" width="160.3" height="79.9" id="bi_solid-b_1_">
		<g class="st0">
			<polygon id="bi_solid-a_1_" class="st1" points="0,1 160.3,1 160.3,81 0,81 			"/>
		</g>
	</mask>
	<path class="st2" d="M80.1,1c44.3,0,80.1,17.5,80.1,39c0,6.1-2.8,11.8-7.9,16.9c0.1,1,0.2,1.9,0.2,2.9c0,11.6-9.4,21-21,21
		c-5.8,0-11.1-2.3-14.9-6.1c-10.9,2.7-23.4,4.3-36.5,4.3C35.9,79.1,0,61.6,0,40C0,18.5,35.9,1,80.1,1z M150.1,37.2
		c-5.7,3.7-11.7,7.9-16,13.3c-1.2-0.1-2.5,0.2-3.7,0.4c-1.7,0.4-3.3,0.9-4.9,1.5c-3.3,1.3-6.3,3.1-9,5.3c-0.7,0.6,0.2,1.6,0.9,1.1
		c4.3-3.5,9.5-6.1,15-6.9c0.2,0,0.5-0.1,0.7-0.1c-2.3,3.1-4,6.5-4.8,10.4c-0.3,1.2-0.4,2.5-0.5,3.8c0,1.1-0.2,2.6,0.5,3.5
		c1.8,2.6,5.1-2.6,5.9-3.9c1.5-2.5,2.9-5.3,3.6-8.1c0.3-1.4,0.6-2.9,0.2-4.3c-0.4-1.1-1.2-2-2.3-2.4c0.3-0.3,0.6-0.7,0.8-1
		c4.2-4.6,9.4-8.2,14.6-11.6C151.7,37.8,150.9,36.8,150.1,37.2z M134.7,52c0.4,0.1,0.9,0.3,1.2,0.6c1,0.9,0.9,2.4,0.7,3.6
		c-0.4,2.6-1.6,5.2-2.9,7.5c-0.6,1.1-1.3,2.3-2.1,3.3c-0.4,0.5-0.8,1-1.3,1.4c-0.2,0.1-0.6,0.6-0.8,0.5c-0.2,0-0.2-0.2-0.3-0.4
		c-0.2-0.5-0.1-1.1-0.1-1.6c0-0.6,0-1.2,0.1-1.7c0.1-1.1,0.3-2.2,0.6-3.3C130.6,58.2,132.4,54.9,134.7,52z M104.6,28.8
		c-1.5,0-2.8,1.3-2.8,2.8v15.9c0,1.5,1.3,2.8,2.8,2.8c1.5,0,2.8-1.3,2.8-2.8v-0.7c0-2.7,0.8-9,8.3-10.8c1.5-0.4,2.4-1.9,2-3.4
		c-0.4-1.5-1.9-2.4-3.4-2c-2.8,0.7-5.1,1.9-6.9,3.5v-2.4C107.4,30,106.2,28.8,104.6,28.8z M86.2,28.8c-1.5,0-2.8,1.3-2.8,2.8v15.9
		c0,1.5,1.3,2.8,2.8,2.8c1.5,0,2.8-1.3,2.8-2.8v-0.7c0-2.7,0.8-9,8.3-10.8c1.5-0.4,2.4-1.9,2-3.4c-0.4-1.5-1.9-2.4-3.4-2
		c-2.9,0.7-5.1,1.9-6.9,3.5v-2.4C89,30,87.7,28.8,86.2,28.8z M67.8,28.8c-1.5,0-2.8,1.3-2.8,2.8v15.9c0,1.5,1.3,2.8,2.8,2.8
		c1.5,0,2.8-1.3,2.8-2.8v-0.7c0-2.7,0.8-9,8.3-10.8c1.5-0.4,2.4-1.9,2-3.4c-0.4-1.5-1.9-2.4-3.4-2c-2.8,0.7-5.1,1.9-6.9,3.5v-2.4
		C70.6,30,69.3,28.8,67.8,28.8z M51.3,28.8c-5.6,0-10.1,4.5-10.1,10.1c0,5.6,4.5,10.1,10.1,10.1c1.6,0,3.2-0.4,4.6-1.1
		c0.2,1.3,1.4,2.3,2.8,2.3c1.5,0,2.8-1.3,2.8-2.8l0,0v-8.6l0-0.3C61.3,33.2,56.8,28.8,51.3,28.8z M51.3,34.1c2.7,0,4.8,2.2,4.8,4.8
		c0,2.7-2.2,4.8-4.8,4.8c-2.7,0-4.8-2.2-4.8-4.8C46.5,36.3,48.7,34.1,51.3,34.1z"/>
</g>
</svg>
