<?xml version="1.0" encoding="utf-8"?>
<!-- Generator: Adobe Illustrator 24.0.1, SVG Export Plug-In . SVG Version: 6.00 Build 0)  -->
<svg version="1.1" id="레이어_1" xmlns="http://www.w3.org/2000/svg" xmlns:xlink="http://www.w3.org/1999/xlink" x="0px"
	 y="0px" viewBox="0 0 162 77" style="enable-background:new 0 0 162 77;" xml:space="preserve">
<style type="text/css">
	.st0{fill-rule:evenodd;clip-rule:evenodd;fill:#477A7B;}
</style>
<g>
	<path class="st0" d="M18.5,12.7c0,3.3-2.7,6.1-6,6.1c-3.3,0-6-2.7-6-6.1c0-3.3,2.7-6.1,6-6.1C15.8,6.7,18.5,9.4,18.5,12.7
		L18.5,12.7z M25,12.7C25,5.7,19.4,0,12.5,0C5.6,0,0,5.7,0,12.7c0,7,5.6,12.7,12.5,12.7c2,0,3.9-0.5,5.6-1.4
		c0.3,1.7,1.7,2.9,3.4,2.9c1.9,0,3.5-1.6,3.5-3.5V12.7z M117.1,29.1c1.3,1.1,1.1,3,0.9,4.4c-0.5,3.2-2,6.4-3.5,9.3
		c-0.8,1.4-1.6,2.8-2.6,4.1c-0.5,0.6-1,1.2-1.6,1.7c-0.2,0.2-0.8,0.7-1,0.7c-0.2-0.1-0.3-0.3-0.3-0.5c-0.2-0.6-0.1-1.4-0.1-2
		c0-0.7,0-1.4,0.1-2.1c0.1-1.4,0.3-2.8,0.7-4.1c1.1-4.5,3.3-8.6,6.1-12.2C116.2,28.5,116.7,28.7,117.1,29.1 M134.6,10.2
		c-7,4.6-14.3,9.8-19.7,16.4c-1.5-0.1-3.1,0.2-4.5,0.5c-2.1,0.5-4.1,1.1-6,1.9c-4,1.6-7.8,3.8-11.1,6.6c-0.8,0.7,0.2,2,1.1,1.3
		c5.2-4.3,11.7-7.5,18.4-8.5c0.3,0,0.6-0.1,0.9-0.1c-2.8,3.8-4.9,8-5.9,12.9c-0.3,1.5-0.5,3.1-0.6,4.6c0,1.4-0.2,3.2,0.6,4.4
		c2.2,3.2,6.3-3.2,7.2-4.8c1.9-3.1,3.5-6.5,4.4-10.1c0.4-1.7,0.8-3.6,0.2-5.4c-0.4-1.4-1.5-2.4-2.9-2.9c0.3-0.4,0.7-0.8,1-1.2
		c5.1-5.7,11.5-10.1,17.9-14.3C136.6,10.9,135.5,9.6,134.6,10.2 M48.9,4.8c-0.5-1.9-2.4-3-4.2-2.6c-3.6,0.9-6.4,2.4-8.7,4.3v-3
		C36,1.6,34.4,0,32.5,0S29,1.6,29,3.5v10.3v1.9v7.7c0,1.9,1.6,3.5,3.5,3.5s3.5-1.6,3.5-3.5v-0.9c0-3.3,1-11.3,10.3-13.6
		C48.2,8.6,49.4,6.7,48.9,4.8 M71.9,4.8c-0.5-1.9-2.4-3-4.2-2.6c-3.6,0.9-6.4,2.4-8.7,4.3v-3C59,1.6,57.4,0,55.5,0
		C53.6,0,52,1.6,52,3.5v10.3v1.9v7.7c0,1.9,1.6,3.5,3.5,3.5c1.9,0,3.5-1.6,3.5-3.5v-0.9c0-3.3,1-11.3,10.3-13.6
		C71.2,8.6,72.4,6.7,71.9,4.8 M94.9,4.8c-0.5-1.9-2.4-3-4.2-2.6c-3.6,0.9-6.4,2.4-8.7,4.3v-3C82,1.6,80.4,0,78.5,0
		C76.6,0,75,1.6,75,3.5v10.3v1.9v7.7c0,1.9,1.6,3.5,3.5,3.5c1.9,0,3.5-1.6,3.5-3.5v-0.9c0-3.3,1-11.3,10.3-13.6
		C94.2,8.6,95.4,6.7,94.9,4.8"/>
</g>
</svg>
