<?xml version="1.0" encoding="utf-8"?>
<!-- Generator: Adobe Illustrator 24.0.1, SVG Export Plug-In . SVG Version: 6.00 Build 0)  -->
<svg version="1.1" id="레이어_1" xmlns="http://www.w3.org/2000/svg" xmlns:xlink="http://www.w3.org/1999/xlink" x="0px"
	 y="0px" viewBox="0 0 80 80" style="enable-background:new 0 0 80 80;" xml:space="preserve">
<style type="text/css">
	.st0{fill-rule:evenodd;clip-rule:evenodd;fill:#FFFFFF;}
	.st1{fill:#477A7B;}
	.st2{enable-background:new    ;}
</style>
<g transform="translate(4 4)">
	<g>
		<circle class="st0" cx="36" cy="36" r="35"/>
		<path class="st1" d="M36,72C16.1,72,0,55.9,0,36S16.1,0,36,0s36,16.1,36,36S55.9,72,36,72z M36,2C17.3,2,2,17.3,2,36
			c0,18.7,15.3,34,34,34c18.7,0,34-15.3,34-34C70,17.3,54.7,2,36,2z"/>
	</g>
	<g class="st2">
		<path class="st1" d="M23.7,39.5c-0.3,0-0.3,0.1-0.3,0.2c0,0.8-0.1,2.7-0.1,4.1c0,1.7,0.1,2.4,1.3,2.4c0.2,0,0.3,0,0.5,0
			c0.1,0,0.1,0,0.2,0c0.6,0,0.9,0.5,0.9,1c0,0.8-0.7,1.2-1.9,1.2c-3.3,0-3.3-2.9-3.3-3.8c0-1.3,0-3.5,0-4.4c0-0.1,0-0.2,0-0.3
			c0-0.3-0.1-0.3-0.4-0.3h-0.7c-0.6,0-1-0.5-1-1.1c0-0.5,0.3-1,1-1h0.6c0.4,0,0.4-0.1,0.4-0.4c0,0,0-0.4,0-0.9c0-0.3,0-0.5,0-0.8
			c0,0,0,0,0-0.1c0-0.7,0.5-1,1.1-1c1.2,0,1.2,1.1,1.2,1.3c0,0.6,0,1.4,0,1.4c0,0.4,0.1,0.4,0.3,0.4h1.5c0.7,0,1,0.5,1,1
			c0,0.5-0.3,1-1,1H23.7z"/>
		<path class="st1" d="M27.8,42.8c0-3.2,2.4-5.6,5.5-5.6c3.1,0,5.5,2.4,5.5,5.6c0,3.3-2.4,5.6-5.5,5.6
			C30.2,48.3,27.8,46.1,27.8,42.8z M36.6,42.8c0-2.2-1.5-3.5-3.3-3.5c-1.8,0-3.3,1.4-3.3,3.5c0,2.2,1.5,3.5,3.3,3.5
			C35.2,46.3,36.6,44.9,36.6,42.8z"/>
		<path class="st1" d="M43.9,38.4C43.9,38.4,43.9,38.4,43.9,38.4c0.9-0.7,1.9-1.2,3.1-1.2c3,0,5.3,2.2,5.3,5.5
			c0,3.2-2.3,5.5-5.3,5.5c-1.2,0-2.2-0.5-3.1-1.2c0,0-0.1-0.1-0.1-0.1c0,0-0.1,0-0.1,0.1c0,2.4,0,4.5,0.1,5.4c0,0.7-0.4,1.1-1.1,1.1
			c-0.6,0-1.2-0.4-1.2-1.1c0,0,0-0.1,0-0.1c0.1-0.8,0.1-2.4,0.1-4.4c0-3.3,0-7.5,0-9.5c0-0.8,0.6-1.2,1.1-1.2
			C43.2,37.3,43.7,37.7,43.9,38.4C43.9,38.4,43.9,38.4,43.9,38.4z M50.2,42.8c0-2.2-1.4-3.5-3.2-3.5c-1.8,0-3.2,1.3-3.2,3.5
			c0,2.2,1.4,3.5,3.2,3.5C48.7,46.3,50.2,44.9,50.2,42.8z"/>
	</g>
	<g>
		<polygon class="st1" points="42.8,26.2 36.4,19.9 30.2,26.2 28.8,24.8 36.4,17.1 44.2,24.8 		"/>
	</g>
</g>
</svg>
