<?xml version="1.0" encoding="utf-8"?>
<!-- Generator: Adobe Illustrator 24.0.1, SVG Export Plug-In . SVG Version: 6.00 Build 0)  -->
<svg version="1.1" id="레이어_1" xmlns="http://www.w3.org/2000/svg" xmlns:xlink="http://www.w3.org/1999/xlink" x="0px"
	 y="0px" viewBox="0 0 40 40" style="enable-background:new 0 0 40 40;" xml:space="preserve">
<style type="text/css">
	.st0{filter:url(#Adobe_OpacityMaskFilter);}
	.st1{fill-rule:evenodd;clip-rule:evenodd;fill:#FFFFFF;}
	.st2{mask:url(#ico_instagram-c_1_);fill-rule:evenodd;clip-rule:evenodd;fill:#477A7B;}
	.st3{fill-rule:evenodd;clip-rule:evenodd;fill:#477A7B;}
</style>
<g>
	<g transform="translate(11 11)">
		<defs>
			<filter id="Adobe_OpacityMaskFilter" filterUnits="userSpaceOnUse" x="0" y="0.1" width="17.9" height="17.9">
				<feColorMatrix  type="matrix" values="1 0 0 0 0  0 1 0 0 0  0 0 1 0 0  0 0 0 1 0"/>
			</filter>
		</defs>
		<mask maskUnits="userSpaceOnUse" x="0" y="0.1" width="17.9" height="17.9" id="ico_instagram-c_1_">
			<g class="st0">
				<polygon id="ico_instagram-b_1_" class="st1" points="0,0.1 17.9,0.1 17.9,18 0,18 				"/>
			</g>
		</mask>
		<path class="st2" d="M16.2,9c0-1.3,0-2.5,0-3.8c-0.1-2.1-1.1-3.3-3.1-3.4c-2.8-0.2-5.7-0.1-8.6,0C2.9,2,1.8,3.1,1.8,4.7
			c-0.1,2.9-0.1,5.8,0,8.7c0.1,1.7,1.1,2.8,2.7,2.9c2.9,0.2,5.8,0.2,8.7,0c1.9-0.1,2.9-1.4,3-3.3C16.3,11.6,16.2,10.3,16.2,9
			 M17.8,9.1c0,1.3,0.1,2.5,0,3.8c-0.2,2.9-1.7,4.7-4.6,4.9c-2.8,0.2-5.7,0.2-8.5,0c-2.9-0.2-4.4-1.7-4.6-4.7
			c-0.2-2.7-0.2-5.4,0-8.1C0.4,1.9,1.8,0.4,5,0.2c2.7-0.2,5.5-0.2,8.2,0.1c2.9,0.2,4.5,2,4.6,5C17.9,6.5,17.8,7.8,17.8,9.1"/>
		<path class="st3" d="M12.1,9c0-1.7-1.4-3-3.1-3C7.3,5.9,5.9,7.3,5.9,9c0,1.7,1.4,3.1,3.1,3.1C10.8,12,12.1,10.7,12.1,9 M13.7,9
			c0,2.6-2.1,4.7-4.7,4.7c-2.6,0-4.7-2.1-4.7-4.7c0-2.6,2.1-4.7,4.7-4.7C11.6,4.3,13.7,6.4,13.7,9 M14.6,4.3
			c-0.1,0.6-0.3,0.9-0.9,0.9c-0.5,0-0.8-0.3-0.8-0.8c0-0.6,0.3-0.9,0.8-0.9C14.2,3.4,14.5,3.8,14.6,4.3"/>
	</g>
</g>
</svg>
