<?xml version="1.0" encoding="utf-8"?>
<!-- Generator: Adobe Illustrator 24.0.1, SVG Export Plug-In . SVG Version: 6.00 Build 0)  -->
<svg version="1.1" id="레이어_1" xmlns="http://www.w3.org/2000/svg" xmlns:xlink="http://www.w3.org/1999/xlink" x="0px"
	 y="0px" viewBox="0 0 40 40" style="enable-background:new 0 0 40 40;" xml:space="preserve">
<style type="text/css">
	.st0{filter:url(#Adobe_OpacityMaskFilter);}
	.st1{fill-rule:evenodd;clip-rule:evenodd;fill:#FFFFFF;}
	.st2{mask:url(#ico_facebook-c_1_);fill-rule:evenodd;clip-rule:evenodd;fill:#477A7B;}
</style>
<g>
	<g transform="translate(15 10)">
		<defs>
			<filter id="Adobe_OpacityMaskFilter" filterUnits="userSpaceOnUse" x="0" y="0" width="10" height="20">
				<feColorMatrix  type="matrix" values="1 0 0 0 0  0 1 0 0 0  0 0 1 0 0  0 0 0 1 0"/>
			</filter>
		</defs>
		<mask maskUnits="userSpaceOnUse" x="0" y="0" width="10" height="20" id="ico_facebook-c_1_">
			<g class="st0">
				<polygon id="ico_facebook-b_1_" class="st1" points="0,0 10,0 10,20 0,20 				"/>
			</g>
		</mask>
		<path class="st2" d="M2.9,10.9H0V7.4h3c0-1.2-0.1-2.2,0-3.3C3.2,1.6,4.6,0.2,7,0C8,0,9,0,10,0v3.3c-0.6,0-1.2,0-1.8,0
			c-1.3,0-1.7,0.4-1.7,1.7c0,0.7,0,1.4,0,2.3h3.4c-0.2,1.2-0.3,2.4-0.5,3.5h-3V20H2.9V10.9z"/>
	</g>
</g>
</svg>
