<?xml version="1.0" encoding="utf-8"?>
<!-- Generator: Adobe Illustrator 24.0.1, SVG Export Plug-In . SVG Version: 6.00 Build 0)  -->
<svg version="1.1" id="레이어_1" xmlns="http://www.w3.org/2000/svg" xmlns:xlink="http://www.w3.org/1999/xlink" x="0px"
	 y="0px" viewBox="0 0 40 40" style="enable-background:new 0 0 40 40;" xml:space="preserve">
<style type="text/css">
	.st0{fill:#477A7B;}
</style>
<g transform="translate(9 9)">
	<g>
		<path class="st0" d="M11,22C4.9,22,0,17.1,0,11S4.9,0,11,0s11,4.9,11,11S17.1,22,11,22z M11,1C5.5,1,1,5.5,1,11
			c0,5.5,4.5,10,10,10c5.5,0,10-4.5,10-10C21,5.5,16.5,1,11,1z"/>
	</g>
	<g>
		<path class="st0" d="M15.5,14.7c-0.1,0-0.2,0-0.3-0.1l-4.7-3.3V4.4c0-0.3,0.2-0.5,0.5-0.5s0.5,0.2,0.5,0.5v6.3l4.3,3
			c0.2,0.2,0.3,0.5,0.1,0.7C15.8,14.6,15.7,14.7,15.5,14.7z"/>
	</g>
</g>
</svg>
