<?xml version="1.0" encoding="utf-8"?>
<!-- Generator: Adobe Illustrator 24.0.1, SVG Export Plug-In . SVG Version: 6.00 Build 0)  -->
<svg version="1.1" id="레이어_1" xmlns="http://www.w3.org/2000/svg" xmlns:xlink="http://www.w3.org/1999/xlink" x="0px"
	 y="0px" viewBox="0 0 40 40" style="enable-background:new 0 0 40 40;" xml:space="preserve">
<style type="text/css">
	.st0{filter:url(#Adobe_OpacityMaskFilter);}
	.st1{fill-rule:evenodd;clip-rule:evenodd;fill:#FFFFFF;}
	.st2{mask:url(#ico_youtube-c_1_);fill-rule:evenodd;clip-rule:evenodd;fill:#477A7B;}
</style>
<g>
	<g transform="translate(9 13)">
		<defs>
			<filter id="Adobe_OpacityMaskFilter" filterUnits="userSpaceOnUse" x="0" y="0" width="22" height="15">
				<feColorMatrix  type="matrix" values="1 0 0 0 0  0 1 0 0 0  0 0 1 0 0  0 0 0 1 0"/>
			</filter>
		</defs>
		<mask maskUnits="userSpaceOnUse" x="0" y="0" width="22" height="15" id="ico_youtube-c_1_">
			<g class="st0">
				<polygon id="ico_youtube-b_1_" class="st1" points="0,0 22,0 22,15 0,15 				"/>
			</g>
		</mask>
		<path class="st2" d="M14.6,7.3c-2-1-3.9-2-5.8-3.1v6.1C10.7,9.3,12.6,8.3,14.6,7.3 M11,15c-2.5,0-4.9,0.1-7.4,0
			c-2-0.1-3-0.9-3.3-2.9c-0.4-3.2-0.5-6.4,0.1-9.5C0.8,0.8,1.7,0,3.5,0c5,0,10,0,15,0c1.7,0,2.8,0.8,3.1,2.5c0.5,3.2,0.6,6.5,0,9.8
			c-0.3,1.8-1.3,2.6-3.1,2.6C16,15,13.5,15,11,15"/>
	</g>
</g>
</svg>
