<?xml version="1.0" encoding="utf-8"?>
<!-- Generator: Adobe Illustrator 24.0.1, SVG Export Plug-In . SVG Version: 6.00 Build 0)  -->
<svg version="1.1" id="레이어_1" xmlns="http://www.w3.org/2000/svg" xmlns:xlink="http://www.w3.org/1999/xlink" x="0px"
	 y="0px" viewBox="0 0 40 40" style="enable-background:new 0 0 40 40;" xml:space="preserve">
<style type="text/css">
	.st0{fill:#477A7B;}
</style>
<path class="st0" d="M20.7,20l9.6-9.6c0.2-0.2,0.2-0.5,0-0.7s-0.5-0.2-0.7,0L20,19.3l-9.6-9.6c-0.2-0.2-0.5-0.2-0.7,0
	s-0.2,0.5,0,0.7l9.6,9.6l-9.6,9.6c-0.2,0.2-0.2,0.5,0,0.7c0.1,0.1,0.2,0.1,0.4,0.1s0.3,0,0.4-0.1l9.6-9.6l9.6,9.6
	c0.1,0.1,0.2,0.1,0.4,0.1s0.3,0,0.4-0.1c0.2-0.2,0.2-0.5,0-0.7L20.7,20z"/>
</svg>
