<?xml version="1.0" encoding="utf-8"?>
<!-- Generator: Adobe Illustrator 24.0.1, SVG Export Plug-In . SVG Version: 6.00 Build 0)  -->
<svg version="1.1" id="레이어_1" xmlns="http://www.w3.org/2000/svg" xmlns:xlink="http://www.w3.org/1999/xlink" x="0px"
	 y="0px" viewBox="0 0 40 40" style="enable-background:new 0 0 40 40;" xml:space="preserve">
<style type="text/css">
	.st0{filter:url(#Adobe_OpacityMaskFilter);}
	.st1{fill-rule:evenodd;clip-rule:evenodd;fill:#FFFFFF;}
	.st2{mask:url(#ico_kakaotalk-c_1_);fill-rule:evenodd;clip-rule:evenodd;fill:#477A7B;}
</style>
<g>
	<g transform="translate(11 12)">
		<defs>
			<filter id="Adobe_OpacityMaskFilter" filterUnits="userSpaceOnUse" x="0" y="0" width="18" height="17">
				<feColorMatrix  type="matrix" values="1 0 0 0 0  0 1 0 0 0  0 0 1 0 0  0 0 0 1 0"/>
			</filter>
		</defs>
		<mask maskUnits="userSpaceOnUse" x="0" y="0" width="18" height="17" id="ico_kakaotalk-c_1_">
			<g class="st0">
				<polygon id="ico_kakaotalk-b_1_" class="st1" points="0,0 18,0 18,17 0,17 				"/>
			</g>
		</mask>
		<path class="st2" d="M4.1,13.5c-0.9-0.8-2-1.5-2.7-2.4c-2.3-3-1.8-6.5,1.3-9.1c3.3-2.8,9.6-2.7,12.8,0.2c3.7,3.3,3.1,8.4-1.2,10.9
			c-1.9,1.1-4,1.5-6.2,1.4c-0.5,0-1.1,0.2-1.5,0.4c-1.1,0.6-2,1.4-3.1,2.1c-0.1-0.1-0.2-0.1-0.3-0.2C3.6,15.7,3.9,14.6,4.1,13.5z"/>
	</g>
</g>
</svg>
