<?xml version="1.0" encoding="utf-8"?>
<!-- Generator: Adobe Illustrator 24.0.1, SVG Export Plug-In . SVG Version: 6.00 Build 0)  -->
<svg version="1.1" id="레이어_1" xmlns="http://www.w3.org/2000/svg" xmlns:xlink="http://www.w3.org/1999/xlink" x="0px"
	 y="0px" viewBox="0 0 40 40" style="enable-background:new 0 0 40 40;" xml:space="preserve">
<style type="text/css">
	.st0{fill-rule:evenodd;clip-rule:evenodd;fill:#477A7B;}
</style>
<path class="st0" d="M30.9,29.2l-5.3-5.3c1.4-1.6,2.2-3.7,2.2-5.8c0-2.4-0.9-4.7-2.6-6.4c-3.5-3.5-9.2-3.5-12.7,0
	c-3.5,3.5-3.5,9.2,0,12.7c1.8,1.8,4.1,2.6,6.4,2.6c2.2,0,4.4-0.8,6.1-2.4l5.3,5.3c0.2,0.2,0.5,0.2,0.7,0S31.1,29.4,30.9,29.2z
	 M13.1,23.7c-1.5-1.5-2.3-3.5-2.3-5.7s0.8-4.1,2.3-5.7c1.6-1.6,3.6-2.3,5.7-2.3c2,0,4.1,0.8,5.7,2.3c1.5,1.5,2.3,3.5,2.3,5.7
	s-0.8,4.1-2.3,5.7C21.3,26.8,16.2,26.8,13.1,23.7z"/>
</svg>
