<?xml version="1.0" encoding="utf-8"?>
<!-- Generator: Adobe Illustrator 24.0.1, SVG Export Plug-In . SVG Version: 6.00 Build 0)  -->
<svg version="1.1" id="레이어_1" xmlns="http://www.w3.org/2000/svg" xmlns:xlink="http://www.w3.org/1999/xlink" x="0px"
	 y="0px" viewBox="0 0 161 81" style="enable-background:new 0 0 161 81;" xml:space="preserve">
<style type="text/css">
	.st0{filter:url(#Adobe_OpacityMaskFilter);}
	.st1{fill-rule:evenodd;clip-rule:evenodd;fill:#FFFFFF;}
	.st2{mask:url(#bi_green-b_1_);fill-rule:evenodd;clip-rule:evenodd;fill:#B9DCD2;}
	.st3{fill-rule:evenodd;clip-rule:evenodd;fill:#477A7B;}
</style>
<g>
	<g transform="translate(0 .95)">
		<defs>
			<filter id="Adobe_OpacityMaskFilter" filterUnits="userSpaceOnUse" x="0" y="0" width="160.3" height="80">
				<feColorMatrix  type="matrix" values="1 0 0 0 0  0 1 0 0 0  0 0 1 0 0  0 0 0 1 0"/>
			</filter>
		</defs>
		<mask maskUnits="userSpaceOnUse" x="0" y="0" width="160.3" height="80" id="bi_green-b_1_">
			<g class="st0">
				<polygon id="bi_green-a_1_" class="st1" points="0,0.1 160.3,0.1 160.3,80 0,80 				"/>
			</g>
		</mask>
		<path class="st2" d="M160.3,39.1c0-21.6-35.9-39-80.1-39S0,17.5,0,39.1c0,21.6,35.9,39,80.1,39c13.1,0,25.6-1.5,36.5-4.3
			c3.8,3.8,9.1,6.1,14.9,6.1c11.6,0,21-9.4,21-21c0-1-0.1-2-0.2-2.9C157.4,50.9,160.3,45.2,160.3,39.1"/>
	</g>
	<path class="st3" d="M56.2,38.9c0,2.7-2.2,4.8-4.8,4.8c-2.7,0-4.8-2.2-4.8-4.8c0-2.7,2.2-4.8,4.8-4.8C54,34.1,56.2,36.3,56.2,38.9
		L56.2,38.9z M61.5,38.9c0-5.6-4.5-10.1-10.1-10.1c-5.6,0-10.1,4.6-10.1,10.1c0,5.6,4.5,10.1,10.1,10.1c1.6,0,3.2-0.4,4.6-1.1
		c0.2,1.3,1.4,2.3,2.8,2.3c1.5,0,2.8-1.3,2.8-2.8V38.9z M135.9,52.6c1,0.9,0.9,2.4,0.7,3.6c-0.4,2.6-1.6,5.2-2.9,7.5
		c-0.6,1.1-1.3,2.3-2.1,3.3c-0.4,0.5-0.8,1-1.3,1.4c-0.2,0.1-0.6,0.6-0.8,0.5c-0.2,0-0.2-0.2-0.3-0.4c-0.2-0.5-0.1-1.1-0.1-1.6
		c0-0.6,0-1.2,0.1-1.7c0.1-1.1,0.3-2.2,0.6-3.3c0.9-3.6,2.7-6.9,5-9.9C135.1,52.1,135.5,52.3,135.9,52.6 M150.1,37.2
		c-5.7,3.7-11.7,7.9-16,13.3c-1.2-0.1-2.5,0.2-3.7,0.4c-1.7,0.4-3.3,0.9-4.9,1.5c-3.3,1.3-6.3,3.1-9,5.3c-0.7,0.6,0.2,1.6,0.9,1.1
		c4.3-3.5,9.5-6.1,15-6.9c0.2,0,0.5-0.1,0.7-0.1c-2.3,3.1-4,6.5-4.8,10.4c-0.3,1.2-0.4,2.5-0.5,3.8c0,1.1-0.2,2.6,0.5,3.5
		c1.8,2.6,5.1-2.6,5.9-3.9c1.5-2.5,2.9-5.3,3.6-8.1c0.3-1.4,0.6-2.9,0.2-4.3c-0.4-1.1-1.2-2-2.3-2.4c0.3-0.3,0.6-0.7,0.8-1
		c4.2-4.6,9.4-8.2,14.6-11.6C151.7,37.8,150.9,36.8,150.1,37.2 M80.9,32.6c-0.4-1.5-1.9-2.4-3.4-2c-2.9,0.7-5.1,1.9-6.9,3.5v-2.4
		c0-1.5-1.3-2.8-2.8-2.8S65,30,65,31.6v8.2v1.5v6.2c0,1.5,1.3,2.8,2.8,2.8s2.8-1.3,2.8-2.8v-0.7c0-2.7,0.8-9,8.3-10.8
		C80.3,35.6,81.2,34.1,80.9,32.6 M99.3,32.6c-0.4-1.5-1.9-2.4-3.4-2c-2.9,0.7-5.1,1.9-6.9,3.5v-2.4c0-1.5-1.3-2.8-2.8-2.8
		c-1.5,0-2.8,1.3-2.8,2.8v8.2v1.5v6.2c0,1.5,1.3,2.8,2.8,2.8c1.5,0,2.8-1.3,2.8-2.8v-0.7c0-2.7,0.8-9,8.3-10.8
		C98.8,35.6,99.7,34.1,99.3,32.6 M117.8,32.6c-0.4-1.5-1.9-2.4-3.4-2c-2.8,0.7-5.1,1.9-6.9,3.5v-2.4c0-1.5-1.3-2.8-2.8-2.8
		c-1.5,0-2.8,1.3-2.8,2.8v8.2v1.5v6.2c0,1.5,1.3,2.8,2.8,2.8c1.5,0,2.8-1.3,2.8-2.8v-0.7c0-2.7,0.8-9,8.3-10.8
		C117.2,35.6,118.1,34.1,117.8,32.6"/>
</g>
</svg>
